<svg data-name="01-booking" xmlns="http://www.w3.org/2000/svg" viewBox="0 0 64 64"><path d="M43 57H1V13h3v40h25a2.938 2.938 0 0 1 3 3 2.938 2.938 0 0 1 3-3h8zM63 13v44H51v-4h9V13z" style="fill:#8394b2"/><path d="M51 57v4l-4-4-4 4v-8h8z" style="fill:#e63b47"/><path style="fill:#01a84e" d="M56 31v4H36l7-7 4 4 5-5 4 4z"/><path d="M56 13v18l-4-4-5 5-4-4-7 7V13h2.32c1.17 3.87 5.28 5.6 5.28 9.64a2.4 2.4 0 0 0 4.8 0c0-4.04 4.11-5.77 5.28-9.64z" style="fill:#4989f4"/><path d="M29 9H4v44h25a2.938 2.938 0 0 1 3 3V12a2.938 2.938 0 0 0-3-3zM16 24a3.011 3.011 0 0 1 3 3 3 3 0 0 1-6 0 3.011 3.011 0 0 1 3-3zm12 11v14H8V33h20z" style="fill:#fbfbfb"/><path d="M35 53a2.938 2.938 0 0 0-3 3V12a2.938 2.938 0 0 1 3-3h3.22a8.162 8.162 0 0 0-.22 1.86 6.867 6.867 0 0 0 .32 2.14H36v22h20V13h-2.32a6.867 6.867 0 0 0 .32-2.14A8.162 8.162 0 0 0 53.78 9H60v44H35z" style="fill:#fbfbfb"/><path d="M32 56a2.938 2.938 0 0 0-3-3H4V13H3v42h25.893a2.8 2.8 0 0 1 2.925 2H32z" style="fill:#5c6979"/><path d="M35 53a2.938 2.938 0 0 0-3 3v1h.182a2.8 2.8 0 0 1 2.925-2H43v-2zM61 55V13h-1v40h-9v2h10z" style="fill:#5c6979"/><circle cx="46" cy="11" r="3" style="fill:#96272e"/><path d="M38.22 9a8.044 8.044 0 0 1 15.56 0 8.162 8.162 0 0 1 .22 1.86 6.867 6.867 0 0 1-.32 2.14c-1.17 3.87-5.28 5.6-5.28 9.64a2.4 2.4 0 0 1-4.8 0c0-4.04-4.11-5.77-5.28-9.64a6.867 6.867 0 0 1-.32-2.14A8.162 8.162 0 0 1 38.22 9zM49 11a3 3 0 1 0-3 3 3 3 0 0 0 3-3z" style="fill:#e63b47"/><path d="M41.6 24.64a2.4 2.4 0 0 0 4.767.324A2.467 2.467 0 0 1 46 25a2.38 2.38 0 0 1-2.4-2.36c0-4.04-4.11-5.77-5.28-9.64h-2.31a6.844 6.844 0 0 0 .31 2c1.17 3.87 5.28 5.6 5.28 9.64z" style="fill:#084eea"/><path d="M46 7a4 4 0 1 0 4 4 4 4 0 0 0-4-4zm0 7a3 3 0 1 1 3-3 3 3 0 0 1-3 3z" style="fill:#b32e37"/><path d="M36 37V9h-1a2.938 2.938 0 0 0-3 3v44a2.938 2.938 0 0 1 3-3h25v-4H48a12 12 0 0 1-12-12z" style="fill:#e8eff5"/><path style="fill:#4989f4" d="M28 35v6l-3-3 3-3z"/><path style="fill:#01a84e" d="m13 44-5 5V39l5 5z"/><path style="fill:#4989f4" d="M28 49H14l7-7 7 7z"/><path style="fill:#fbcb00" d="M28 33v2l-3 3 3 3v8l-7-7-7 7H8l5-5-5-5v-6l8 8 8-8h4z"/><path style="fill:#01a84e" d="m16 41-8-8h16l-8 8z"/><path d="M20 49H8V9H4v44h25a2.938 2.938 0 0 1 3 3v-7H20z" style="fill:#e8eff5"/><path d="M8.212 39.212 8 39v10l3.515-3.515a11.966 11.966 0 0 1-3.303-6.273z" style="fill:#019144"/><path d="M14 49h6a11.925 11.925 0 0 1-4.931-1.069z" style="fill:#084eea"/><path d="M8 37v2l.212.212A12.03 12.03 0 0 1 8 37zM11.515 45.485 8 49h6l1.069-1.069a11.983 11.983 0 0 1-3.554-2.446z" style="fill:#faab1b"/><path style="fill:#8394b2" d="M11 12.5h18v1H11zM7 12.5h2v1H7zM11 20.5h18v1H11zM7 20.5h2v1H7zM7 16.5h22v1H7zM7 24.5h22v1H7z"/><path d="M13.77 25A3 3 0 0 1 19 27a3 3 0 0 1-6 0 2.965 2.965 0 0 1 .77-2z" style="fill:#b32e37"/><circle cx="16" cy="27" r="2" style="fill:#e63b47"/><path d="M15.5 29.95V37h1v-7.05a2.525 2.525 0 0 1-1 0z" style="fill:#a8b7d4"/><path d="M51 55v-2h-8v8l4-4v-2z" style="fill:#b32e37"/><path style="fill:#8394b2" d="M39 40.5h18v1H39zM35 40.5h2v1h-2zM39 48.5h18v1H39zM35 48.5h2v1h-2zM35 44.5h22v1H35z"/></svg>