<svg xmlns="http://www.w3.org/2000/svg" xml:space="preserve" width="2048" height="2048" style="shape-rendering:geometricPrecision;text-rendering:geometricPrecision;image-rendering:optimizeQuality;fill-rule:evenodd;clip-rule:evenodd"><defs><clipPath id="id0"><path d="M1024 0c565.539 0 1024 458.461 1024 1024s-458.461 1024-1024 1024S0 1589.539 0 1024 458.461 0 1024 0z"/></clipPath><style>.fil3{fill:#33691e}.fil4{fill:#689f38}.fil1{fill:#f57c00}.fil5{fill:#e6ee9c;fill-rule:nonzero}</style></defs><g id="Layer_x0020_1"><path d="M1024 0c565.539 0 1024 458.461 1024 1024s-458.461 1024-1024 1024S0 1589.539 0 1024 458.461 0 1024 0z" style="fill:#ffa726"/><g style="clip-path:url(#id0)"><g id="_341213296"><path id="_3384392401" class="fil1" d="M1333.24 515.078 2469.12 1650.96l1.14 1.35 1.07 1.4 1.01 1.46.93 1.51.87 1.55.79 1.61.71 1.66.64 1.69.55 1.74.47 1.78.38 1.82.29 1.86L1342.09 534.504l-.29-1.855-.38-1.817-.47-1.78-.55-1.74-.64-1.697-.71-1.655-.79-1.608-.87-1.559-.94-1.509-1-1.456-1.07-1.404z"/><path id="_338438928" class="fil1" d="M1342.09 534.504 2477.97 1670.39l6.43 49.12L1348.52 583.629z"/><path id="_338440440" class="fil1" d="M1500.09 615.403 2635.97 1751.29l1.08 1.38L1501.17 616.785z"/><path id="_338440560" class="fil1" d="M1501.17 616.785 2637.05 1752.67l1.01 1.43.95 1.48.87 1.52.8 1.57.73 1.6.65 1.64.57 1.68.5 1.7.41 1.74.32 1.76.24 1.79.15 1.8.06 1.83-.04 1.84-.12 1.85-.23 1.87L1508.04 643.883l.22-1.864.13-1.853.03-1.84-.05-1.824-.15-1.807-.24-1.785-.33-1.763-.4-1.735-.5-1.708-.57-1.674-.65-1.642-.73-1.605-.8-1.565-.87-1.524-.95-1.477z"/><path id="_338440608" class="fil1" d="M1508.04 643.883 2643.92 1779.77l-20.1 137.45L1487.94 781.339z"/><path id="_338440680" class="fil1" d="M1569.94 803.735 2705.82 1939.62l1.83 2.32 1.71 2.41 1.61 2.49 1.48 2.58 1.36 2.64 1.23 2.72 1.1 2.79.97 2.86.83 2.91.69 2.97.54 3.02.39 3.07.24 3.11.08 3.15L1584 842.781l-.08-3.154-.24-3.113-.39-3.07-.54-3.02-.69-2.969-.83-2.911-.97-2.853-1.1-2.788-1.23-2.72-1.36-2.65-1.49-2.572-1.6-2.493-1.71-2.411z"/><path id="_338440416" class="fil1" d="M1584 842.781 2719.88 1978.66v116.4L1584 959.174z"/><path id="_338440800" class="fil1" d="M1584 959.174 2719.88 2095.06v74.54L1584 1033.71z"/><path id="_338440200" class="fil1" d="M1584 1033.71 2719.88 2169.6v.51L1584 1034.22z"/><path id="_338440368" class="fil1" d="m1584 1034.22 1135.88 1135.89v46.34L1584 1080.57z"/><path id="_338441448" class="fil1" d="m1584 1080.57 1135.88 1135.88v170.04L1584 1250.61z"/><path id="_338441040" class="fil1" d="m1584 1250.61 1135.88 1135.88v46.34L1584 1296.95z"/><path id="_338441256" class="fil1" d="m1584 1296.95 1135.88 1135.88v.51L1584 1297.46z"/><path id="_338440968" class="fil1" d="m1584 1297.46 1135.88 1135.88v28.82L1584 1326.28z"/><path id="_338441472" class="fil1" d="m1584 1326.28 1135.88 1135.88v162.12L1584 1488.4z"/><path id="_338441136" class="fil1" d="m1584 1488.4 1135.88 1135.88-.08 3.15-.24 3.12-.39 3.06-.54 3.03-.69 2.96-.83 2.92-.97 2.85-1.1 2.79-1.23 2.72-1.36 2.65-1.48 2.57-1.61 2.49-1.71 2.41-1.83 2.32-1.93 2.24-2.04 2.13-2.13 2.04-2.24 1.93-2.32 1.83-2.41 1.71-2.49 1.6-2.57 1.49-2.65 1.36-2.72 1.23-2.79 1.1-2.85.97-2.92.83-2.96.69-3.02.54-3.07.39-3.12.24-3.15.08-1135.88-1135.88 3.15-.08 3.11-.24 3.07-.39 3.02-.54 2.97-.69 2.92-.83 2.85-.97 2.79-1.1 2.72-1.24 2.64-1.36 2.58-1.48 2.49-1.6 2.41-1.71 2.32-1.83 2.23-1.94 2.14-2.03 2.04-2.14 1.93-2.23 1.83-2.32 1.71-2.41 1.6-2.49 1.49-2.58 1.36-2.65 1.23-2.72 1.1-2.78.97-2.86.83-2.91.69-2.97.54-3.02.39-3.07.24-3.11z"/><path id="_338440992" class="fil1" d="m1522.56 1549.84 1135.88 1135.88h-997.12L525.442 1549.84z"/><path id="_338442048" class="fil1" d="M525.442 1549.84 1661.32 2685.72l-3.15-.08-3.11-.24-3.07-.39-3.02-.54-2.97-.69-2.91-.83-2.86-.97-2.79-1.1-2.72-1.23-2.64-1.36-2.58-1.49-2.49-1.6-2.41-1.71-2.32-1.83L486.396 1535.78l2.322 1.83 2.411 1.71 2.493 1.6 2.572 1.48 2.65 1.36 2.72 1.24 2.788 1.1 2.853.97 2.911.83 2.969.69 3.021.54 3.069.39 3.114.24z"/><path id="_341213920" class="fil1" d="m766.673 498.548 268.533 39.267 265.912-34.801c9.98-1.305 19.576 1.58 26.992 7.28 7.416 5.699 12.674 14.229 13.98 24.21l6.43 49.125 128.651 18.812c9.96 1.457 18.409 6.841 23.997 14.344 5.588 7.5 8.328 17.138 6.871 27.098l-20.098 137.456h34.617c33.844 0 61.442 27.598 61.442 61.442v645.616c0 33.842-27.599 61.441-61.442 61.441H525.442c-33.845 0-61.443-27.596-61.443-61.44V842.78c0-33.847 27.597-61.442 61.443-61.442h51.07l-18.868-144.174c-1.305-9.98 1.58-19.576 7.28-26.992s14.23-12.674 24.21-13.98l128.796-16.855 7.3-49.921c1.457-9.96 6.842-18.41 14.344-23.996 7.5-5.588 17.137-8.329 27.099-6.873z"/></g></g><path d="M1024 0c565.539 0 1024 458.461 1024 1024s-458.461 1024-1024 1024S0 1589.539 0 1024 458.461 0 1024 0z" style="fill:none"/><path class="fil3" d="m766.672 498.548 710.5 103.893c9.96 1.456 18.409 6.842 23.997 14.343 5.587 7.501 8.327 17.14 6.871 27.098l-51.256 350.536c-1.456 9.96-6.842 18.408-14.345 23.996-7.5 5.589-17.139 8.329-27.098 6.873l-710.5-103.893c-9.959-1.457-18.407-6.841-23.995-14.344-5.588-7.502-8.33-17.139-6.873-27.098l51.258-350.536c1.456-9.959 6.842-18.409 14.343-23.995 7.502-5.588 17.138-8.33 27.098-6.873z"/><path class="fil4" d="M764.912 510.587c-6.422-.939-12.87.718-18.07 4.591-5.2 3.873-8.635 9.579-9.573 15.998l-51.257 350.536c-.939 6.42.717 12.87 4.59 18.07 3.874 5.2 9.58 8.635 16 9.574l710.5 103.892c6.42.939 12.87-.717 18.07-4.591 5.2-3.873 8.634-9.578 9.573-16L1496 642.124c.94-6.42-.717-12.871-4.59-18.07-3.874-5.2-9.578-8.634-16-9.573L764.912 510.587z"/><path class="fil3" d="m755.958 518.351 80.296 11.741c.258 1.595.465 3.206.619 4.832.531 5.61.38 11.56-.53 17.773-2.95 20.188-13.804 37.267-28.966 48.56-15.158 11.29-34.63 16.8-54.818 13.847-5.295-.773-10.103-1.957-14.407-3.5l-.59-.213 13.02-89.037c.185-1.267.891-2.357 1.876-3.091.985-.734 2.233-1.098 3.5-.912zM699.677 903.236l80.297 11.741a74.615 74.615 0 0 0 1.976-4.451c2.116-5.223 3.674-10.97 4.583-17.182 2.952-20.187-2.557-39.658-13.85-54.82-11.291-15.158-28.37-26.012-48.558-28.964-5.295-.774-10.242-1.018-14.807-.772l-.626.036-13.019 89.037c-.185 1.267.18 2.514.913 3.5.734.984 1.825 1.69 3.091 1.875zM1425.49 1009.37l-80.296-11.741a74.554 74.554 0 0 1-.619-4.832c-.531-5.61-.38-11.56.53-17.773 2.95-20.188 13.804-37.267 28.966-48.56 15.158-11.29 34.63-16.8 54.818-13.847 5.295.774 10.103 1.957 14.407 3.5l.59.213-13.02 89.037c-.185 1.267-.891 2.358-1.876 3.091-.985.735-2.233 1.098-3.5.912zM1481.77 624.482l-80.297-11.741a74.615 74.615 0 0 0-1.976 4.451c-2.114 5.224-3.674 10.97-4.582 17.182-2.953 20.187 2.556 39.659 13.85 54.82 11.29 15.158 28.37 26.013 48.557 28.965 5.295.774 10.242 1.017 14.807.771l.626-.036 13.019-89.037c.185-1.266-.178-2.513-.913-3.498-.734-.986-1.824-1.692-3.091-1.877zM1116.61 586.839c48.344 7.069 89.249 33.066 116.3 69.383 27.05 36.316 40.247 82.952 33.178 131.297-7.07 48.343-33.067 89.249-69.384 116.3-36.316 27.05-82.952 40.247-131.296 33.178-48.344-7.07-89.248-33.067-116.3-69.384-27.05-36.316-40.248-82.952-33.178-131.296 7.069-48.345 33.066-89.249 69.383-116.3 36.316-27.05 82.952-40.248 131.297-33.178z"/><path class="fil5" d="m1074.06 868.268 3.094-21.157c-10.405-2.875-18.65-6.5-24.776-10.882-6.125-4.38-11.056-10.76-14.763-19.052-3.703-8.333-5.157-18.018-4.317-29.09l21.864-.903c-.015 11.603 1.655 20.376 5.05 26.326 4.837 8.416 11.372 13.637 19.56 15.695l9.851-67.366c-8.472-2.92-16.85-7.59-25.218-14.021-6.193-4.76-10.61-10.736-13.288-17.935-2.679-7.2-3.381-15.01-2.144-23.482 2.202-15.054 9.326-26.479 21.328-34.238 8.068-5.258 19.223-7.52 33.44-6.878l1.48-10.116 12.486 1.826-1.48 10.116c12.114 2.96 21.382 8.006 27.688 15.079 8.152 9.025 12.149 20.393 12.075 34.078l-22.361.092c-.03-8.492-1.705-15.257-5.034-20.254-3.29-4.992-8.28-8.715-14.98-11.129L1104.692 746c10.245 4.246 17.006 7.368 20.242 9.358 6.16 3.853 11.024 8.172 14.554 12.913 3.565 4.784 6.055 10.193 7.428 16.216 1.41 6.07 1.63 12.417.656 19.082-2.15 14.693-8.632 26.211-19.377 34.644-10.753 8.475-23.601 11.927-38.52 10.484l-3.13 21.398-12.485-1.826zm27.104-185.358c-8.412.04-15.397 2.381-20.915 7.029-5.518 4.646-8.809 10.603-9.878 17.91-1.05 7.186.071 13.541 3.416 18.992 3.344 5.45 9.6 10.343 18.813 14.642l8.564-58.573zm-8.906 148.12c8.377.2 15.684-2.38 21.956-7.696s10.071-12.51 11.392-21.543c1.122-7.668.099-14.132-2.994-19.342-3.133-5.215-10.11-10.499-20.932-15.854l-9.422 64.435z"/><path class="fil3" d="m589.134 596.193 711.984-93.177c9.98-1.307 19.574 1.579 26.992 7.279 7.416 5.699 12.674 14.229 13.98 24.209l45.971 351.268c1.306 9.98-1.58 19.574-7.28 26.992-5.7 7.417-14.23 12.674-24.209 13.98l-711.984 93.179c-9.98 1.305-19.574-1.58-26.992-7.28-7.416-5.7-12.674-14.23-13.98-24.21l-45.971-351.267c-1.307-9.98 1.58-19.576 7.28-26.992s14.229-12.675 24.209-13.981z"/><path class="fil4" d="M590.713 608.258c-6.435.842-12.19 4.19-16.142 9.33-3.95 5.14-5.704 11.565-4.863 17.998l45.972 351.268c.841 6.435 4.19 12.19 9.33 16.141 5.141 3.952 11.565 5.705 18 4.863l711.983-93.177c6.435-.842 12.19-4.19 16.142-9.33 3.95-5.142 5.704-11.566 4.863-18l-45.972-351.268c-.841-6.433-4.189-12.19-9.33-16.14-5.141-3.952-11.565-5.706-18-4.863l-711.983 93.178z"/><path class="fil3" d="m584.207 618.162 80.465-10.53a74.085 74.085 0 0 1 1.909 4.482c2.036 5.253 3.508 11.022 4.323 17.247 2.648 20.23-3.154 39.616-14.674 54.605-11.519 14.986-28.76 25.583-48.99 28.23-5.305.694-10.255.863-14.815.549l-.626-.046-11.676-89.223c-.167-1.269.217-2.511.965-3.484.748-.975 1.85-1.663 3.119-1.83zM634.682 1003.85l80.465-10.53c.281-1.59.513-3.2.692-4.822.615-5.602.553-11.554-.262-17.78-2.647-20.23-13.243-37.47-28.232-48.989-14.986-11.518-34.374-17.32-54.604-14.673-5.305.695-10.131 1.805-14.457 3.283l-.592.204 11.676 89.223c.166 1.27.855 2.37 1.829 3.12.974.748 2.215 1.13 3.485.964zM1362.01 908.665l-80.464 10.53a74.096 74.096 0 0 1-1.91-4.482c-2.036-5.253-3.506-11.02-4.321-17.247-2.648-20.23 3.153-39.616 14.674-54.605 11.517-14.986 28.758-25.583 48.988-28.23 5.306-.694 10.255-.863 14.816-.549l.625.046 11.678 89.223c.165 1.27-.218 2.511-.965 3.484-.75.975-1.851 1.663-3.12 1.83zM1311.53 522.976l-80.464 10.53a73.524 73.524 0 0 0-.69 4.822c-.617 5.602-.555 11.554.26 17.78 2.647 20.23 13.242 37.47 28.231 48.99 14.987 11.517 34.375 17.32 54.604 14.673 5.306-.695 10.132-1.806 14.459-3.284l.591-.204-11.676-89.223c-.167-1.27-.855-2.37-1.83-3.12-.974-.748-2.215-1.13-3.485-.964zM949.893 586.023c48.445-6.34 94.877 7.558 130.782 35.153 35.904 27.594 61.283 68.886 67.623 117.332 6.34 48.445-7.558 94.877-35.152 130.781-27.595 35.906-68.887 61.284-117.332 67.624-48.445 6.34-94.877-7.558-130.782-35.153-35.905-27.594-61.283-68.885-67.623-117.33-6.34-48.447 7.558-94.879 35.152-130.783 27.595-35.905 68.887-61.284 117.332-67.624z"/><path class="fil5" d="m985.459 868.419-2.774-21.2c-10.796.06-19.715-1.185-26.8-3.737-7.086-2.55-13.567-7.35-19.39-14.32-5.827-7.013-9.86-15.937-12.061-26.821l20.795-6.814c3.14 11.17 7.132 19.159 12.016 23.962 6.944 6.785 14.653 10.031 23.09 9.786l-8.834-67.507c-8.946-.507-18.279-2.723-28.08-6.637-7.254-2.897-13.128-7.448-17.663-13.647-4.536-6.199-7.335-13.525-8.446-22.015-1.975-15.086 1.776-28.017 11.214-38.745 6.336-7.254 16.457-12.465 30.313-15.711l-1.327-10.139 12.511-1.637 1.328 10.139c12.463-.445 22.754 1.891 30.744 6.984 10.3 6.468 17.236 16.322 20.885 29.51l-21.495 6.169c-2.336-8.164-5.788-14.219-10.35-18.123-4.522-3.91-10.338-6.135-17.442-6.638l8.003 61.15c11.014 1.302 18.369 2.467 22.023 3.502 6.977 2.033 12.831 4.868 17.518 8.47 4.732 3.635 8.597 8.164 11.557 13.586 3.006 5.458 4.943 11.507 5.817 18.186 1.928 14.723-1.179 27.569-9.228 38.608-8.043 11.077-19.47 17.892-34.219 20.559l2.807 21.443-12.512 1.637zm-24.308-185.745c-8.085 2.327-14.171 6.478-18.218 12.451-4.047 5.972-5.593 12.598-4.635 19.92.942 7.202 3.748 13.013 8.45 17.35 4.699 4.336 12.05 7.343 22.083 8.976l-7.68-58.697zm31.697 144.964c8.115-2.085 14.446-6.555 19.036-13.376 4.59-6.82 6.292-14.777 5.107-23.829-1.006-7.684-3.748-13.627-8.14-17.799-4.433-4.167-12.584-7.356-24.454-9.567l8.45 64.571z"/><path style="fill:#3e2723" d="M1117.33 959.174h466.667v367.101H1117.33z"/><path d="M525.442 781.338h997.116c33.844 0 61.442 27.598 61.442 61.443v191.444h-304.96c-12.765 0-24.356 5.208-32.747 13.597-8.388 8.39-13.597 19.98-13.597 32.746v170.04c0 12.766 5.209 24.357 13.597 32.746 8.39 8.39 19.98 13.598 32.746 13.598H1584v191.445c0 33.842-27.599 61.442-61.442 61.442H525.442c-33.844 0-61.442-27.597-61.442-61.442V842.781c0-33.846 27.596-61.443 61.442-61.443z" style="fill:#6d4c41;fill-rule:nonzero"/><path d="M1580.33 1076.9h-315.071c-.986 0-1.9.42-2.574 1.094-.674.673-1.092 1.587-1.092 2.572v170.04c0 .985.418 1.9 1.092 2.574.675.674 1.588 1.093 2.574 1.093h315.071c.985 0 1.9-.419 2.572-1.093.676-.676 1.094-1.589 1.094-2.574v-170.04c0-.984-.418-1.898-1.094-2.571-.673-.676-1.587-1.095-2.572-1.095zm-200.616 34.658c14.875 0 28.387 6.075 38.17 15.858 9.785 9.784 15.858 23.296 15.858 38.17 0 14.876-6.073 28.386-15.858 38.17-9.783 9.785-23.295 15.858-38.17 15.858s-28.386-6.073-38.17-15.858c-9.784-9.784-15.857-23.294-15.857-38.17 0-14.874 6.073-28.386 15.857-38.17 9.785-9.783 23.295-15.858 38.17-15.858z" style="fill:#8d6e63;fill-rule:nonzero"/></g></svg>