<svg xmlns="http://www.w3.org/2000/svg" viewBox="0 0 512 512" style="enable-background:new 0 0 512 512" xml:space="preserve"><path style="fill:#c44" d="M473.863 72.581H38.137C21.223 72.581 7.5 86.291 7.5 103.22v356.729c0 16.921 13.718 30.637 30.637 30.637h435.725c16.916 0 30.637-13.71 30.637-30.639V103.218c.001-16.921-13.715-30.637-30.636-30.637z"/><path style="fill:#b53c3c" d="M27.502 459.947V103.218c0-16.921 13.718-30.637 30.637-30.637H38.137C21.223 72.581 7.5 86.291 7.5 103.22v356.729c0 16.921 13.718 30.637 30.637 30.637h20.001c-16.892 0-30.636-13.688-30.636-30.639z"/><path style="fill:#e3e5e5" d="M120.979 121.42c-11.047 0-20.001-8.955-20.001-20.001V41.415c0-11.047 8.955-20.001 20.001-20.001 11.047 0 20.001 8.955 20.001 20.001v60.004c.001 11.047-8.954 20.001-20.001 20.001zM213.652 121.42c-11.047 0-20.001-8.955-20.001-20.001V41.415c0-11.047 8.955-20.001 20.001-20.001s20.001 8.955 20.001 20.001v60.004c0 11.047-8.954 20.001-20.001 20.001zM306.324 121.42c-11.047 0-20.001-8.955-20.001-20.001V41.415c0-11.047 8.955-20.001 20.001-20.001s20.001 8.955 20.001 20.001v60.004c0 11.047-8.955 20.001-20.001 20.001zM398.996 121.42c-11.047 0-20.001-8.955-20.001-20.001V41.415c0-11.047 8.955-20.001 20.001-20.001s20.001 8.955 20.001 20.001v60.004c0 11.047-8.954 20.001-20.001 20.001z"/><path style="fill:#d6d6d6" d="M120.979 101.419V41.415c0-7.398 4.028-13.844 10.001-17.304a19.884 19.884 0 0 0-10.001-2.697c-11.047 0-20.001 8.955-20.001 20.001v60.004c0 15.369 16.678 25.02 30.002 17.304-5.972-3.46-10.001-9.904-10.001-17.304zM213.652 101.419V41.415c0-7.398 4.028-13.844 10.001-17.304a19.886 19.886 0 0 0-10.001-2.697c-11.047 0-20.001 8.955-20.001 20.001v60.004c0 11.047 8.955 20.001 20.001 20.001 3.647 0 7.056-.992 10.001-2.697-5.973-3.46-10.001-9.904-10.001-17.304zM306.324 101.419V41.415c0-7.398 4.028-13.844 10.001-17.304a19.886 19.886 0 0 0-10.001-2.697c-11.047 0-20.001 8.955-20.001 20.001v60.004c0 11.047 8.955 20.001 20.001 20.001 3.647 0 7.056-.992 10.001-2.697-5.973-3.46-10.001-9.904-10.001-17.304zM398.996 101.419V41.415c0-7.398 4.028-13.844 10.001-17.304a19.886 19.886 0 0 0-10.001-2.697c-11.047 0-20.001 8.955-20.001 20.001v60.004c0 11.047 8.955 20.001 20.001 20.001 3.647 0 7.056-.992 10.001-2.697-5.973-3.46-10.001-9.904-10.001-17.304z"/><path style="fill:#f5f5f5" d="M45.975 192.022V445.44c0 6.627 5.372 12.001 12.001 12.001H455c6.628 0 12.001-5.373 12.001-12.001V192.022H45.975z"/><path style="fill:#e3e5e5" d="M65.976 445.44V192.022H45.975V445.44c0 6.627 5.372 12.001 12.001 12.001h20.001c-6.629 0-12.001-5.374-12.001-12.001z"/><path style="fill:#626c7f" d="M333.297 246.367c-6.711-6.715-17.598-6.715-24.311 0l-34.676 34.674-56.129-26.845c-7.781-3.724-17.122-1.1-21.827 6.137-4.454 6.85-3.445 15.827 2.246 21.521.318.318.649.626.997.92l39.352 33.629-25.416 25.415-19.491-4.294c-9.272-2.043-18.442 3.816-20.486 13.09-1.313 5.949.632 11.859 4.641 15.868a17.12 17.12 0 0 0 8.447 4.619l17.962 3.957 3.959 17.963a17.11 17.11 0 0 0 4.62 8.447c4.01 4.011 9.919 5.952 15.866 4.642 9.274-2.042 15.134-11.217 13.09-20.487l-4.293-19.491 25.415-25.415 33.629 39.351a17.195 17.195 0 0 0 22.442 3.244c7.233-4.704 9.86-14.044 6.134-21.829l-26.844-56.129 34.675-34.674c6.714-6.716 6.714-17.601-.002-24.313z"/><path style="fill:#f95c4b" d="M455 155.422H57.975c-6.628 0-12.001 5.372-12.001 12.001v26.599H467v-26.599c0-6.628-5.372-12.001-12-12.001z"/><path style="fill:#f44b34" d="M77.977 155.422H57.976c-6.628 0-12.001 5.372-12.001 12.001v26.599h20.001v-26.599c0-6.628 5.372-12.001 12.001-12.001z"/><path style="fill:#555e6d" d="M318.625 261.026s10.07-10.328 17.964-10.019a17.15 17.15 0 0 0-3.292-4.641c-6.711-6.715-17.598-6.715-24.311 0L274.31 281.04l-56.129-26.845c-7.781-3.724-17.122-1.1-21.827 6.137-4.454 6.85-3.445 15.827 2.246 21.521.318.318.649.626.997.92l39.352 33.629-25.416 25.415-19.491-4.294c-9.272-2.043-18.442 3.816-20.486 13.09-1.313 5.949.632 11.859 4.641 15.868a17.12 17.12 0 0 0 8.447 4.619l17.962 3.957 114.019-114.031z"/><path d="M195.656 330.199c-13.308-2.931-26.495 5.504-29.426 18.798-2.971 13.471 5.612 26.521 18.799 29.429l13.282 2.927c2.995 13.59 3.332 19.189 9.569 25.419 11.196 11.201 29.803 9.115 38.279-4.156 6.692-10.476 3.265-18.784-.104-34.085l16.774-16.773c30.521 35.715 28.68 33.612 29.678 34.612 8.191 8.192 21.19 9.554 30.914 3.23 10.355-6.733 14.143-20.213 8.812-31.353l-24.553-51.342 30.922-30.922a24.527 24.527 0 0 0 7.233-17.46 24.528 24.528 0 0 0-7.233-17.46c-9.648-9.652-25.269-9.652-34.918 0l-30.924 30.922-51.341-24.554c-11.141-5.332-24.619-1.542-31.353 8.814-6.319 9.719-4.961 22.719 3.229 30.914 1 .998-1.193-.922 34.613 29.677l-16.774 16.774-15.478-3.411zm23.179 16.923 25.416-25.415c3.09-3.088 2.895-8.163-.431-11.007-.425-.363-39.522-33.755-39.917-34.149-7.617-7.619 1.242-20.279 11.041-15.589l56.129 26.845a7.502 7.502 0 0 0 8.54-1.462l34.677-34.675a9.683 9.683 0 0 1 13.703-.001l.002.002a9.682 9.682 0 0 1-.001 13.704l-34.675 34.674a7.502 7.502 0 0 0-1.462 8.54l26.844 56.131c2.093 4.372.606 9.662-3.456 12.304-3.976 2.584-9.432 1.938-12.652-1.828l-33.629-39.351c-2.864-3.352-7.943-3.491-11.006-.432l-25.415 25.415a7.502 7.502 0 0 0-2.021 6.917c4.563 20.721 5.76 22.469 2.996 26.795-3.318 5.195-10.617 6.039-15.033 1.623-2.56-2.558-2.264-3.244-6.556-22.718a7.499 7.499 0 0 0-5.711-5.71l-17.96-3.957c-5.21-1.149-8.539-6.294-7.378-11.549 1.153-5.232 6.347-8.528 11.549-7.379l19.491 4.294a7.506 7.506 0 0 0 6.915-2.022z"/><path d="M473.863 65.082h-47.365V41.415c0-15.164-12.338-27.502-27.502-27.502s-27.502 12.338-27.502 27.502v23.666h-37.669V41.415c0-15.164-12.338-27.502-27.502-27.502s-27.502 12.338-27.502 27.502v23.666h-37.668V41.415c0-15.164-12.338-27.502-27.502-27.502S186.15 26.252 186.15 41.415v23.666h-37.669V41.415c0-15.164-12.338-27.502-27.502-27.502S93.478 26.252 93.478 41.415v23.666h-55.34C17.108 65.082 0 82.191 0 103.22v356.729c0 21.028 17.108 38.137 38.137 38.137h363.359c4.143 0 7.5-3.357 7.5-7.5s-3.357-7.5-7.5-7.5H38.137c-12.758 0-23.136-10.379-23.136-23.136V103.22c0-12.758 10.379-23.137 23.136-23.137h55.34v21.336c0 15.164 12.338 27.502 27.502 27.502s27.502-12.338 27.502-27.502V80.083h37.669v21.336c0 15.164 12.338 27.502 27.502 27.502s27.502-12.338 27.502-27.502V80.083h37.668v21.336c0 15.164 12.338 27.502 27.502 27.502s27.502-12.338 27.502-27.502V80.083h37.669v21.336c0 15.164 12.338 27.502 27.502 27.502s27.502-12.338 27.502-27.502V80.083h47.365c12.758 0 23.136 10.38 23.136 23.137v356.729c0 12.758-10.379 23.136-23.136 23.136H436.5c-4.143 0-7.5 3.357-7.5 7.5s3.357 7.5 7.5 7.5h37.364c21.028 0 38.137-17.108 38.137-38.137V103.22c-.001-21.029-17.11-38.138-38.138-38.138zM133.48 101.419c0 6.893-5.607 12.501-12.501 12.501-6.893 0-12.501-5.607-12.501-12.501V41.415c0-6.893 5.607-12.501 12.501-12.501 6.893 0 12.501 5.607 12.501 12.501v60.004zm92.673 0c0 6.893-5.607 12.501-12.501 12.501s-12.501-5.607-12.501-12.501V41.415c0-6.893 5.607-12.501 12.501-12.501s12.501 5.607 12.501 12.501v60.004zm92.671 0c0 6.893-5.607 12.501-12.501 12.501s-12.501-5.607-12.501-12.501V41.415c0-6.893 5.607-12.501 12.501-12.501s12.501 5.607 12.501 12.501v60.004zm92.673 0c0 6.893-5.607 12.501-12.501 12.501-6.893 0-12.501-5.607-12.501-12.501V41.415c0-6.893 5.607-12.501 12.501-12.501 6.893 0 12.501 5.607 12.501 12.501v60.004z"/><path d="M45.975 259.801a7.499 7.499 0 0 0-7.5 7.5V445.44c0 10.753 8.749 19.501 19.501 19.501H455c10.753 0 19.501-8.749 19.501-19.501V168.423c0-10.753-8.749-19.501-19.501-19.501H57.975c-10.753 0-19.501 8.749-19.501 19.501v63.876c0 4.143 3.357 7.5 7.5 7.5s7.5-3.357 7.5-7.5v-29.777H459.5V445.44c0 2.481-2.019 4.5-4.5 4.5H57.975a4.505 4.505 0 0 1-4.5-4.5V267.301a7.5 7.5 0 0 0-7.5-7.5zm7.5-72.28v-19.098c0-2.481 2.019-4.5 4.5-4.5H455c2.481 0 4.5 2.019 4.5 4.5v19.098H53.475z"/></svg>