<svg xmlns="http://www.w3.org/2000/svg" width="48" height="48"><g fill="#1a171b"><path d="M24 8.242A15.757 15.757 0 1 0 39.758 24 15.776 15.776 0 0 0 24 8.242zm-1.984 1.607a28.081 28.081 0 0 0-4.691 6.351 25.9 25.9 0 0 1-3.82-1.887 14.268 14.268 0 0 1 8.511-4.464zm-9.453 5.6a27.641 27.641 0 0 0 4.129 2.068 16.44 16.44 0 0 0-1.43 5.756H9.734a14.2 14.2 0 0 1 2.829-7.826zm0 17.106a14.2 14.2 0 0 1-2.829-7.826h5.528a16.419 16.419 0 0 0 1.43 5.758 27.357 27.357 0 0 0-4.129 2.066zm.941 1.128a26.151 26.151 0 0 1 3.82-1.887 28.071 28.071 0 0 0 4.694 6.354 14.252 14.252 0 0 1-8.518-4.469zm9.768 3.663a27.618 27.618 0 0 1-4.547-6.046 17.953 17.953 0 0 1 4.547-.828zm0-8.325a19.51 19.51 0 0 0-5.2.969 15.044 15.044 0 0 1-1.355-5.262h6.559v4.293zm0-5.748h-6.559a15.049 15.049 0 0 1 1.355-5.262 19.478 19.478 0 0 0 5.2.969v4.293zm0-5.748a17.953 17.953 0 0 1-4.547-.826 27.519 27.519 0 0 1 4.547-6.041zM34.5 14.316a25.951 25.951 0 0 1-3.82 1.887 28.18 28.18 0 0 0-4.69-6.352 14.271 14.271 0 0 1 8.51 4.465zm-9.77-3.662a27.587 27.587 0 0 1 4.545 6.046 17.952 17.952 0 0 1-4.548.826zm0 8.324a19.446 19.446 0 0 0 5.2-.969 15.045 15.045 0 0 1 1.356 5.262h-6.56v-4.293zm0 5.748h6.561a15.05 15.05 0 0 1-1.356 5.262 19.565 19.565 0 0 0-5.2-.969v-4.293zm0 5.748a17.953 17.953 0 0 1 4.548.828 27.617 27.617 0 0 1-4.548 6.041zm1.255 7.674a28.048 28.048 0 0 0 4.694-6.354 25.838 25.838 0 0 1 3.819 1.887 14.246 14.246 0 0 1-8.516 4.467zm9.454-5.6a27.39 27.39 0 0 0-4.128-2.068 16.44 16.44 0 0 0 1.43-5.758h5.528a14.2 14.2 0 0 1-2.833 7.831zm2.83-9.282h-5.531a16.375 16.375 0 0 0-1.43-5.756 27.641 27.641 0 0 0 4.129-2.068 14.2 14.2 0 0 1 2.829 7.829z"/><path d="M48 24A23.967 23.967 0 0 0 10.187 4.4a4.081 4.081 0 0 0-2.671-1.01 4.1 4.1 0 0 0-3.108 6.8A23.964 23.964 0 0 0 37.813 43.6a4.1 4.1 0 0 0 5.78-5.787A23.843 23.843 0 0 0 48 24zM7.516 4.849a2.666 2.666 0 1 1-2.667 2.666 2.668 2.668 0 0 1 2.667-2.666zm32.969 38.3a2.667 2.667 0 1 1 2.666-2.666 2.669 2.669 0 0 1-2.666 2.667zm1.98-6.258a4.059 4.059 0 0 0-1.979-.529 4.125 4.125 0 0 0-4.121 4.121 4.064 4.064 0 0 0 .529 1.979A22.512 22.512 0 0 1 5.536 11.107a4.079 4.079 0 0 0 1.98.529 4.127 4.127 0 0 0 4.121-4.121 4.06 4.06 0 0 0-.53-1.98 22.512 22.512 0 0 1 31.358 31.357z"/></g></svg>