<svg xmlns="http://www.w3.org/2000/svg" viewBox="0 0 512 512" style="enable-background:new 0 0 512 512" xml:space="preserve"><circle style="fill:#6edcf9" cx="255.997" cy="288.45" r="165.171"/><path style="fill:#37cae2" d="M156.452 246.576c0-44.429 17.547-84.757 46.083-114.442-64.978 22.22-111.699 83.809-111.699 156.315 0 91.219 73.948 165.165 165.168 165.165 46.79 0 89.031-19.461 119.084-50.725-107.145 36.639-218.636-43.203-218.636-156.313z"/><path style="fill:#6edcf9" d="m379.557 15.855 15.058 42.663h35.658c6.903 0 12.501 5.598 12.501 12.501 0 6.904-5.597 12.501-12.501 12.501h-35.658l-15.058 42.663a12.5 12.5 0 0 1-14.379 8.069 12.498 12.498 0 0 1-9.872-13.206l2.942-37.525h-26.136l-7.815 12.231c-3.717 5.817-11.446 7.521-17.265 3.804-5.816-3.718-7.522-11.443-3.804-17.265l7.2-11.272-7.2-11.271c-3.719-5.824-2.009-13.551 3.804-17.265 5.818-3.717 13.548-2.014 17.265 3.804l7.815 12.23h26.136l-2.942-37.523a12.501 12.501 0 0 1 24.251-5.139z"/><path style="fill:#37cae2" d="M442.32 67.72c-4.159 4.517-13.651 3.299-13.651 3.299H310.431c-7.63 11.944-9.169 13.411-9.169 17.989 0 12.402 16.303 17.282 23.037 6.742l7.815-12.231h26.136c-3.129 39.909-2.981 37.752-2.981 38.513 0 13.949 19.637 17.338 24.29 4.15l15.058-42.663h35.658c8.149.001 14.248-7.735 12.045-15.799z"/><path d="M473.014 280.346a7.5 7.5 0 0 0-7.512 7.488c-.184 115.155-93.19 209.164-209.836 209.164-115.519-.185-209.351-94.317-209.166-209.836.182-112.761 89.883-204.84 201.607-209.001l-12.412 10.48a7.501 7.501 0 0 0 9.678 11.462l28.255-23.856c3.54-2.988 3.547-8.448.018-11.446l-28.179-23.945a7.498 7.498 0 0 0-10.573.858 7.5 7.5 0 0 0 .859 10.572l12.761 10.844C128.37 66.983 31.695 165.42 31.498 287.139 31.402 347.105 54.665 403.519 97 445.99 138.097 487.22 194.058 512 256.011 512c122.669 0 224.291-98.999 224.491-224.142a7.5 7.5 0 0 0-7.488-7.512z"/><path d="M302.997 105.86c9.296 5.938 21.686 3.206 27.624-6.086l5.602-8.77h13.915c-2.505 31.954-2.37 29.901-2.37 31.012 0 10.901 8.921 19.99 19.98 19.99 8.32-.001 16.023-5.239 18.882-13.344l13.292-37.658h30.352c11.029 0 20.001-8.973 20.001-20.001s-8.973-20.001-20.001-20.001h-30.352l-13.292-37.66C383.301 3.907 373.408-1.64 363.623.432c-9.706 2.057-16.588 11.117-15.794 21.131l2.308 29.438h-13.915l-5.602-8.769c-10.742-16.812-36.857-9.097-36.857 10.78 0 7.064 3.115 10.707 7.769 17.989l-4.622 7.234c-5.883 9.218-3.334 21.603 6.087 27.625zm13.754-38.895-7.199-11.269a4.995 4.995 0 0 1 1.52-6.907 5.007 5.007 0 0 1 6.906 1.521l7.814 12.23a7.502 7.502 0 0 0 6.32 3.462h26.136c4.368 0 7.82-3.726 7.477-8.087-.023-.299-2.958-37.625-2.958-37.925.001-5.576 7.861-6.912 9.717-1.656l15.058 42.663a7.5 7.5 0 0 0 7.072 5.004h35.658c2.757 0 5 2.243 5 5s-2.243 5-5 5h-35.658a7.499 7.499 0 0 0-7.072 5.004l-15.058 42.664c-1.933 5.48-10.146 3.733-9.7-2.056 3.169-40.418 3.941-39.993.972-43.204a7.502 7.502 0 0 0-5.507-2.408h-26.136a7.5 7.5 0 0 0-6.32 3.462l-7.814 12.231c-2.686 4.204-9.216 2.277-9.216-2.704 0-1.925.268-1.866 7.989-13.951a7.495 7.495 0 0 0-.001-8.074zM380.664 191.905a7.5 7.5 0 0 0 11.855-9.192c-32.842-42.351-82.507-66.948-136.522-66.946-95.206.004-172.661 77.46-172.661 172.667 0 95.127 77.378 172.665 172.668 172.665 126.679 0 210.627-132.838 155.774-247.232a7.5 7.5 0 1 0-13.526 6.487c9.153 19.087 14.255 39.433 15.231 60.579h-63.28c-1.632-71.413-25.093-120.005-47.673-143.217 30.611 9.391 57.844 28.027 78.134 54.189zM263.501 445.374v-149.44h71.698c-1.851 77.688-33.12 141.981-71.698 149.44zm-15.001 0c-38.561-7.454-69.846-71.689-71.699-149.44H248.5v149.44zm-71.698-164.441c1.851-77.69 33.118-141.984 71.699-149.442v149.442h-71.699zm32.585-143.13c-22.654 23.345-45.962 71.998-47.588 143.13H98.518c3.174-67.43 48.901-123.914 110.869-143.13zM98.518 295.934h63.281c1.625 71.085 24.906 119.754 47.588 143.129-61.968-19.217-107.695-75.699-110.869-143.129zM302.61 439.065c22.667-23.357 45.966-72.041 47.591-143.13h63.283c-3.173 67.431-48.902 123.915-110.874 143.13zm32.589-158.132h-71.698V131.491c38.541 7.453 69.845 71.653 71.698 149.442z"/></svg>