<svg version="1.1" id="ecommerce_1_" xmlns="http://www.w3.org/2000/svg" x="0" y="0" viewBox="0 0 115 115" style="enable-background:new 0 0 115 115" xml:space="preserve"><style>.st0{fill:#ffeead}.st2{fill:#99734a}.st8{fill:#ffcc5c}.st11{fill:#e05858}</style><g id="secured_payment_1_"><path class="st11" d="M99.908 21.508c-17.219.961-35.784-15.775-35.784-15.775H50.876S32.311 22.469 15.093 21.507l-5.868 9.234v15.197s-.279 38.86 40.1 69.061h16.351c40.379-30.201 40.1-69.061 40.1-69.061V30.741l-5.868-9.233z"/><path d="M99.908 15.774C82.689 16.736 64.124 0 64.124 0H50.876S32.311 16.736 15.093 15.774l-5.868 9.234v15.197s-.279 38.86 40.1 69.061h16.351c40.379-30.201 40.1-69.061 40.1-69.061V25.008l-5.868-9.234z" style="fill:#ff6f69"/><path class="st0" d="M23.426 20.946zM92.925 20.913c-14.383.804-29.891-13.177-29.891-13.177h-6.675v25.945h36.939a5.357 5.357 0 0 1 4.529 2.504v-7.559l-4.902-7.713zM22.075 20.913l-4.902 7.714 4.902-7.714zM56.359 83.246v15.766h7.97c6.78-5.071 12.168-10.433 16.481-15.766H56.359z"/><path class="st8" d="m51.966 7.736-.039.035.039-.035zM51.966 7.736s-1.515 1.365-4.036 3.218a71.907 71.907 0 0 1-3.477 2.401c-.649.42-1.33.846-2.04 1.271a62.516 62.516 0 0 1-3.368 1.875c-.785.404-1.591.796-2.415 1.168a44.488 44.488 0 0 1-3.817 1.524 35.242 35.242 0 0 1-3.977 1.124c-.895.195-1.797.349-2.7.456a24.42 24.42 0 0 1-2.71.173c-.451.003-.902-.008-1.351-.033l-4.902 7.713v7.187c.982-1.288 2.516-2.132 4.26-2.132h34.926V7.736h-4.393zM34.19 83.246a86.717 86.717 0 0 0 5.357 6.044 94.9 94.9 0 0 0 11.124 9.722h5.688V83.246H34.19z"/><path class="st11" d="M33.053 81.832a82.27 82.27 0 0 1-5.098-7.38 79.886 79.886 0 0 1-2.706-4.781 77.827 77.827 0 0 1-3.976-8.966 73.015 73.015 0 0 1-2.395-7.783 67.844 67.844 0 0 1-1-4.782 58.477 58.477 0 0 1-.381-2.576c-.336-2.691-.325-4.245-.325-4.245v-5.508a5.327 5.327 0 0 0-1.113 3.241v29.141a94.964 94.964 0 0 0 8.248 15.05h9.882c-.38-.469-.772-.94-1.136-1.411zM97.827 36.185v5.136s.129 20.725-17.017 41.924h9.882a95.054 95.054 0 0 0 7.98-14.43v-29.76a5.346 5.346 0 0 0-.845-2.87z"/><path d="M93.298 33.681H56.359v49.564H80.81c17.146-21.2 17.017-41.924 17.017-41.924v-5.136a5.357 5.357 0 0 0-4.529-2.504z" style="fill:#c9b77d"/><path d="M21.433 33.681c-1.744 0-3.279.844-4.26 2.132v5.508s-.011 1.553.325 4.245a58.477 58.477 0 0 0 .651 4.055c.2 1.026.44 2.13.73 3.303a73.085 73.085 0 0 0 2.395 7.783 77.827 77.827 0 0 0 3.976 8.966 79.886 79.886 0 0 0 2.706 4.781 81.92 81.92 0 0 0 5.098 7.38c.364.471.756.942 1.137 1.413H56.36V33.681H21.433z" style="fill:#d6a041"/><g><path d="M93.298 27.307H21.433a5.373 5.373 0 0 0-5.373 5.373v38.817a5.373 5.373 0 0 0 5.373 5.373h71.865a5.373 5.373 0 0 0 5.373-5.373V32.68a5.373 5.373 0 0 0-5.373-5.373z" style="fill:#96ceb4"/><path class="st2" d="M16.06 33.802h82.612v11.359H16.06z"/><circle class="st11" cx="81.896" cy="52.624" r="4.665"/><circle class="st8" cx="87.951" cy="52.624" r="4.665"/><circle class="st0" cx="87.951" cy="64.812" r="4.665"/><circle class="st8" cx="81.896" cy="64.812" r="4.665"/><path class="st0" d="M20.9 50.06h46.171v8.404H20.9z"/><path class="st2" d="M65.838 61.949H21.376c-.678 0-1.233.555-1.233 1.233s.555 1.233 1.233 1.233h44.461c.678 0 1.233-.555 1.233-1.233a1.235 1.235 0 0 0-1.232-1.233zM65.838 68.261H21.376c-.678 0-1.233.555-1.233 1.233s.555 1.233 1.233 1.233h44.461c.678 0 1.233-.555 1.233-1.233a1.235 1.235 0 0 0-1.232-1.233z"/></g></g></svg>